<svg xmlns="http://www.w3.org/2000/svg" viewBox="0 0 48 48" fill="none">
  <defs>
    <linearGradient id="historyGradient" x1="0%" y1="0%" x2="100%" y2="100%">
      <stop offset="0%" style="stop-color:#f59e0b;stop-opacity:0.9" />
      <stop offset="100%" style="stop-color:#ec4899;stop-opacity:0.9" />
    </linearGradient>
  </defs>
  <path d="M12 8h20a2 2 0 0 1 2 2v28a2 2 0 0 1-2 2H12a2 2 0 0 1-2-2V10a2 2 0 0 1 2-2z" fill="url(#historyGradient)" opacity="0.12"/>
  <path d="M12 8h20a2 2 0 0 1 2 2v28a2 2 0 0 1-2 2H12a2 2 0 0 1-2-2V10a2 2 0 0 1 2-2z" stroke="url(#historyGradient)" stroke-width="2" stroke-linecap="round" stroke-linejoin="round"/>
  <path d="M16 16h16M16 22h16M16 28h12" stroke="url(#historyGradient)" stroke-width="2" stroke-linecap="round"/>
  <path d="M10 8V6a2 2 0 0 1 2-2h24a2 2 0 0 1 2 2v2" stroke="url(#historyGradient)" stroke-width="2" stroke-linecap="round" stroke-linejoin="round"/>
</svg>

